<?xml version="1.0" encoding="UTF-8"?>
<svg width="184" height="25" viewBox="0 0 184 25" fill="none" xmlns="http://www.w3.org/2000/svg">
  <path d="M13.9 24.3L11.4 20.4V24.3H9.6V16.5H11.5L14.1 20.4V16.5H15.9V24.3H13.9ZM23.7 24.3V16.5H25.7V22.6H29.1V24.3H23.7ZM35.5 24.4C32.6 24.4 30.8 22.4 30.8 20.3C30.8 18.2 32.6 16.3 35.4 16.3C38.2 16.3 40 18.2 40 20.3C40 22.4 38.3 24.4 35.5 24.4ZM35.5 22.8C37.1 22.8 38.2 21.6 38.2 20.3C38.2 19 37.1 17.9 35.5 17.9C33.8 17.9 32.7 19 32.7 20.3C32.7 21.6 33.8 22.8 35.5 22.8ZM48.5 24.3L46 20.4V24.3H44.3V16.5H46.1L48.7 20.4V16.5H50.5V24.3H48.5ZM57.1 24.3V16.5H59.1V24.3H57.1ZM67.5 24.3L65 20.4V24.3H63.2V16.5H65.1L67.7 20.4V16.5H69.5V24.3H67.5ZM77.5 24.3V18.2H75.1V16.5H81.7V18.2H79.3V24.3H77.5ZM88.3 24.3V16.5H90.3V22.6H93.7V24.3H88.3ZM100.2 24.3V16.5H106.2V18.2H102.1V19.6H106V21.2H102.1V22.6H106.3V24.3H100.2ZM113.4 24.3V16.5H115.4V22.6H118.8V24.3H113.4ZM125.1 24.3V16.5H127V20.2L130 16.5H132.4L128.7 20.8L132.6 24.3H130.1L127 20.9V24.3H125.1ZM140.4 24.3L140.1 23.3C139.5 24.1 138.4 24.5 137.4 24.5C135.7 24.5 134.9 23.2 134.9 22.2C134.9 21.1 135.6 20.1 137.1 19.6L139.9 18.7V18.5C139.9 17.8 139.5 17.5 138.4 17.5C137.5 17.5 136.2 17.9 135.3 18.6L134.4 17.3C135.5 16.4 136.7 16.2 138.4 16.2C140.8 16.2 141.7 17.3 141.7 18.9V22.5C141.7 23.4 141.8 23.9 142 24.3H140.4ZM139.9 20.1L137.9 20.7C137.1 21 136.7 21.3 136.7 21.9C136.7 22.5 137.1 22.8 137.9 22.8C138.7 22.8 139.4 22.3 139.9 21.8V20.1ZM149.5 24.3V16.5H151.3V19H154.7V16.5H156.5V24.3H154.7V20.7H151.3V24.3H149.5ZM168.6 24.3L168.3 23.3C167.7 24.1 166.6 24.5 165.6 24.5C163.9 24.5 163.1 23.2 163.1 22.2C163.1 21.1 163.8 20.1 165.3 19.6L168.1 18.7V18.5C168.1 17.8 167.7 17.5 166.6 17.5C165.7 17.5 164.4 17.9 163.5 18.6L162.6 17.3C163.7 16.4 164.9 16.2 166.6 16.2C169 16.2 169.9 17.3 169.9 18.9V22.5C169.9 23.4 170 23.9 170.2 24.3H168.6ZM168.1 20.1L166.1 20.7C165.3 21 164.9 21.3 164.9 21.9C164.9 22.5 165.3 22.8 166 22.8C166.8 22.8 167.5 22.3 168.1 21.8V20.1ZM178.7 24.3V16.5H180.5V22.6H183.9V24.3H178.7ZM3.4 7V5.3H0V2H10V5.3H6.6V7H3.4ZM12.1 7V2H22.1V7H12.1ZM19.1 5.3V3.7H15.1V5.3H19.1ZM31 7.1C27.3 7.1 24.9 4.5 24.9 1.1V0.1H28.2V1.1C28.2 2.7 29.3 3.8 31 3.8C32.7 3.8 33.7 2.7 33.7 1.1V0.1H37V1.1C37 4.5 34.6 7.1 31 7.1ZM46.3 7V5.3H42.8V2H52.8V7H46.3ZM49.7 5.3V3.7H45.8V5.3H49.7ZM59.8 7.1C56.1 7.1 53.7 4.5 53.7 1.1V0.1H57V1.1C57 2.7 58.1 3.8 59.8 3.8C61.5 3.8 62.5 2.7 62.5 1.1V0.1H65.8V1.1C65.8 4.5 63.4 7.1 59.8 7.1ZM75.1 7V5.3H71.7V2H81.7V7H75.1ZM78.6 5.3V3.7H74.6V5.3H78.6ZM96.7 7L94.9 5C94.5 5.2 93.9 5.3 93.2 5.3H90V7H86.8V2H93.2C95.6 2 96.6 3.2 96.6 4.2C96.6 4.8 96.3 5.3 95.7 5.7L98.1 7H96.7ZM93.2 3.7C93.7 3.7 94 3.5 94 4.2C94 4.7 93.7 4.9 93.2 4.9H90V3.7H93.2ZM109.3 7L108.6 5.6H103.8L103.1 7H99.6L104.1 0H108.3L112.8 7H109.3ZM107.6 3.9L106.2 1.6L104.8 3.9H107.6ZM119.9 7V3.7H116.5V7H113.3V2H123.1V7H119.9ZM132.2 7L131.5 5.6H126.7L126 7H122.5L127 0H131.2L135.7 7H132.2ZM130.5 3.9L129.1 1.6L127.7 3.9H130.5ZM144.7 7L143 5C142.6 5.2 142 5.3 141.3 5.3H138.1V7H134.9V2H141.3C143.7 2 144.7 3.2 144.7 4.2C144.7 4.8 144.4 5.3 143.8 5.7L146.2 7H144.7ZM141.3 3.7C141.8 3.7 142.1 3.5 142.1 4.2C142.1 4.7 141.8 4.9 141.3 4.9H138.1V3.7H141.3ZM154.4 7.1C150.2 7.1 147.4 4.7 147.4 1.1V0.1H150.7V1.1C150.7 3 152.1 4.1 154.4 4.1C156.7 4.1 158.1 3 158.1 1.1V0.1H161.4V1.1C161.4 4.7 158.6 7.1 154.4 7.1ZM171.8 7.1C167.6 7.1 164.8 4.7 164.8 1.1V0.1H168.1V1.1C168.1 3 169.5 4.1 171.8 4.1C174.1 4.1 175.5 3 175.5 1.1V0.1H178.8V1.1C178.8 4.7 176 7.1 171.8 7.1ZM183.9 7V2H184V7H183.9ZM181.5 7V2H181.6V7H181.5Z" fill="#333333"/>
</svg>