<?xml version="1.0" encoding="UTF-8"?>
<svg width="64" height="64" viewBox="0 0 64 64" fill="none" xmlns="http://www.w3.org/2000/svg">
  <path d="M50.9146 5.40267C47.7479 2.23601 42.6146 2.23601 39.4479 5.40267L9.41461 35.436C8.74794 36.1027 8.28127 36.9693 8.08127 37.9027L4.08127 55.9027C3.74794 57.5693 4.21461 59.236 5.34794 60.3693C6.48127 61.5027 8.14794 61.9693 9.81461 61.636L27.8146 57.636C28.7479 57.436 29.6146 56.9693 30.2813 56.3027L60.3146 26.2693C63.4813 23.1027 63.4813 17.9693 60.3146 14.8027L50.9146 5.40267ZM42.8146 8.76934L53.5479 19.5027L48.8146 24.236L38.0813 13.5027L42.8146 8.76934ZM13.6146 39.0693L34.7479 17.936L45.4813 28.6693L24.3479 49.8027L11.8813 52.836L13.6146 39.0693Z" fill="#8B5CF6"/>
</svg>